<svg viewBox="0 0 32 32" fill="currentColor" xmlns="http://www.w3.org/2000/svg"><path d="M29.174 1.288 26.21 4.252l-.634-.634a5.548 5.548 0 0 0-3.934-1.622 5.55 5.55 0 0 0-3.933 1.626l-2.357 2.354-.705-.705L13.24 6.68l3.28 3.28-3.28 3.28 1.408 1.407 3.28-3.28 2.576 2.576-3.28 3.28 1.408 1.408 3.28-3.28 3.28 3.28 1.408-1.408-.704-.704 2.357-2.358c2.163-2.165 2.164-5.703 0-7.866l-.634-.634 2.965-2.965-1.409-1.408zM21.642 3.98a3.56 3.56 0 0 1 2.525 1.05l2.677 2.673a3.556 3.556 0 0 1 0 5.05l-2.358 2.357-7.726-7.726 2.357-2.354a3.559 3.559 0 0 1 2.525-1.05zM6.68 13.24l-1.41 1.406.705.705-2.358 2.357c-2.163 2.165-2.163 5.703 0 7.867l.634.634-2.964 2.964 1.408 1.409 2.965-2.965.634.634c2.165 2.163 5.703 2.16 7.866-.004l2.358-2.353.704.704 1.408-1.409L6.68 13.24zm.704 3.52 7.726 7.726-2.357 2.354a3.556 3.556 0 0 1-5.05 0l-2.677-2.673a3.556 3.556 0 0 1 0-5.05l2.358-2.357z"/></svg>