<svg viewBox="0 0 303.597 303.597" fill="currentColor" xmlns="http://www.w3.org/2000/svg"><path d="M57.866 268.881c25.982 19.891 56.887 30.403 89.369 30.402h.002c6.545 0 13.176-.44 19.707-1.308 39.055-5.187 73.754-25.272 97.702-56.557 14.571-19.033 24.367-41.513 28.329-65.01a7.5 7.5 0 0 0-6.148-8.643l-19.721-3.326a7.502 7.502 0 0 0-8.643 6.148c-3.019 17.896-10.49 35.032-21.608 49.555-18.266 23.861-44.73 39.181-74.521 43.137-4.994.664-10.061 1-15.058 1-24.757 0-48.317-8.019-68.137-23.191-23.86-18.266-39.18-44.73-43.136-74.519-3.957-29.787 3.924-59.333 22.189-83.194 21.441-28.007 54.051-44.069 89.469-44.069 24.886 0 48.484 7.996 68.245 23.122a113.078 113.078 0 0 1 17.626 16.754l-36.934-6.52a7.5 7.5 0 0 0-8.689 6.082l-3.477 19.695a7.5 7.5 0 0 0 6.081 8.689l88.63 15.647a7.505 7.505 0 0 0 5.605-1.241 7.495 7.495 0 0 0 3.084-4.841l15.646-88.63a7.5 7.5 0 0 0-6.081-8.69l-19.695-3.477a7.494 7.494 0 0 0-8.689 6.082l-6.585 37.3a148.189 148.189 0 0 0-25.248-24.642c-25.914-19.838-56.86-30.324-89.495-30.324-46.423 0-89.171 21.063-117.284 57.787C6.454 93.385-3.878 132.123 1.309 171.178c5.188 39.058 25.274 73.755 56.557 97.703z"/></svg>